<?xml version="1.0" encoding="UTF-8" standalone="no"?>
<!-- Created with Inkscape (http://www.inkscape.org/) -->

<svg
   xmlns:dc="http://purl.org/dc/elements/1.1/"
   xmlns:cc="http://creativecommons.org/ns#"
   xmlns:rdf="http://www.w3.org/1999/02/22-rdf-syntax-ns#"
   xmlns:svg="http://www.w3.org/2000/svg"
   xmlns="http://www.w3.org/2000/svg"
   xmlns:sodipodi="http://sodipodi.sourceforge.net/DTD/sodipodi-0.dtd"
   xmlns:inkscape="http://www.inkscape.org/namespaces/inkscape"
   width="30mm"
   height="30mm"
   viewBox="0 0 30 30"
   version="1.1"
   id="svg8"
   inkscape:version="0.92.4 (5da689c313, 2019-01-14)"
   sodipodi:docname="favicon.svg">
  <defs
     id="defs2" />
  <sodipodi:namedview
     id="base"
     pagecolor="#ffffff"
     bordercolor="#666666"
     borderopacity="1.0"
     inkscape:pageopacity="0.0"
     inkscape:pageshadow="2"
     inkscape:zoom="5.6"
     inkscape:cx="47.951218"
     inkscape:cy="44.82356"
     inkscape:document-units="mm"
     inkscape:current-layer="svg8"
     showgrid="false"
     showguides="true"
     inkscape:guide-bbox="true"
     fit-margin-top="0"
     fit-margin-left="0"
     fit-margin-right="0"
     fit-margin-bottom="0"
     inkscape:window-width="1920"
     inkscape:window-height="1017"
     inkscape:window-x="1912"
     inkscape:window-y="-8"
     inkscape:window-maximized="1" />
  <metadata
     id="metadata5">
    <rdf:RDF>
      <cc:Work
         rdf:about="">
        <dc:format>image/svg+xml</dc:format>
        <dc:type
           rdf:resource="http://purl.org/dc/dcmitype/StillImage" />
        <dc:title></dc:title>
      </cc:Work>
    </rdf:RDF>
  </metadata>
  <path
     style="fill:#00796b;fill-opacity:1;stroke-width:1.47523272"
     d="m 15.000271,0.22945263 c -5.7091467,0 -10.326809,4.61765967 -10.326809,10.32681737 0,7.744967 10.326809,19.17773 10.326809,19.17773 0,0 10.326267,-11.432763 10.326267,-19.17773 0,-5.7091577 -4.617108,-10.32681737 -10.326267,-10.32681737 z"
     id="path842-5"
     inkscape:connector-curvature="0" />
  <path
     style="fill:#ff5722;fill-opacity:1;stroke-width:1.38276291"
     d="m 15.000255,0.9109143 c -5.3512901,0 -9.6795101,4.328218 -9.6795101,9.6795177 0,7.2595 9.6795101,17.97564 9.6795101,17.97564 0,0 9.679,-10.71614 9.679,-17.97564 0,-5.3512997 -4.3277,-9.6795177 -9.679,-9.6795177 z"
     id="path842"
     inkscape:connector-curvature="0" />
  <path
     style="fill:#ffffff;fill-opacity:1;stroke-width:1.38276291"
     d="m 15.000255,7.1332723 c 1.90822,0 3.45664,1.5489401 3.45664,3.4571597 0,1.90821 -1.54842,3.45663 -3.45664,3.45663 -1.90821,0 -3.45715,-1.54842 -3.45715,-3.45663 0,-1.9082196 1.54894,-3.4571597 3.45715,-3.4571597 z"
     id="path819"
     inkscape:connector-curvature="0" />
</svg>
