<?xml version="1.0" encoding="UTF-8" standalone="no"?>
<!-- Created with Inkscape (http://www.inkscape.org/) -->

<svg
   xmlns:dc="http://purl.org/dc/elements/1.1/"
   xmlns:cc="http://creativecommons.org/ns#"
   xmlns:rdf="http://www.w3.org/1999/02/22-rdf-syntax-ns#"
   xmlns:svg="http://www.w3.org/2000/svg"
   xmlns="http://www.w3.org/2000/svg"
   xmlns:sodipodi="http://sodipodi.sourceforge.net/DTD/sodipodi-0.dtd"
   xmlns:inkscape="http://www.inkscape.org/namespaces/inkscape"
   width="1880"
   height="300"
   viewBox="0 0 497.41666 79.375002"
   version="1.1"
   id="svg8"
   inkscape:version="0.92.4 (5da689c313, 2019-01-14)"
   sodipodi:docname="curvypath.svg">
  <defs
     id="defs2" />
  <sodipodi:namedview
     id="base"
     pagecolor="#ffffff"
     bordercolor="#666666"
     borderopacity="1.0"
     inkscape:pageopacity="0.0"
     inkscape:pageshadow="2"
     inkscape:zoom="0.7"
     inkscape:cx="888.09649"
     inkscape:cy="213.16063"
     inkscape:document-units="px"
     inkscape:current-layer="layer2"
     showgrid="false"
     units="px"
     inkscape:window-width="1920"
     inkscape:window-height="1017"
     inkscape:window-x="1912"
     inkscape:window-y="-8"
     inkscape:window-maximized="1" />
  <metadata
     id="metadata5">
    <rdf:RDF>
      <cc:Work
         rdf:about="">
        <dc:format>image/svg+xml</dc:format>
        <dc:type
           rdf:resource="http://purl.org/dc/dcmitype/StillImage" />
        <dc:title></dc:title>
      </cc:Work>
    </rdf:RDF>
  </metadata>
  <g
     inkscape:groupmode="layer"
     id="layer2"
     inkscape:label="Layer 2">
    <path
       style="fill:none;stroke:#26a69a;stroke-width:5.00801325;stroke-linecap:butt;stroke-linejoin:round;stroke-miterlimit:4;stroke-dasharray:10.01602655, 10.01602655;stroke-dashoffset:0;stroke-opacity:1"
       d="m 36.36091,6.6941881 c 0,0 11.243839,67.2795499 52.035554,57.0928399 15.883806,17.643723 76.408586,15.271823 116.835496,-7.845503 59.559,-86.936081 91.90221,-8.422709 122.87622,10.407491 67.12912,-65.2621579 72.94506,45.943494 132.07296,-16.597573"
       id="path818"
       inkscape:connector-curvature="0"
       sodipodi:nodetypes="ccccc" />
    <path
       style="fill:#26a69a;fill-opacity:1;stroke-width:5.7621479"
       d="M 336.72266 97.839844 C 314.42314 97.839844 296.38672 115.87627 296.38672 138.17578 C 296.38672 168.42706 336.72266 213.08398 336.72266 213.08398 C 336.72266 213.08398 377.05664 168.42706 377.05664 138.17578 C 377.05664 115.87627 359.02217 97.839844 336.72266 97.839844 z M 336.7207 112.16992 C 338.93407 112.16992 340.7207 113.95651 340.7207 116.16992 L 340.7207 130.83789 L 362.05469 144.17188 L 362.05469 149.50586 L 340.7207 142.83789 L 340.7207 157.50586 L 346.05469 161.50586 L 346.05469 165.50586 L 336.7207 162.83789 L 327.38867 165.50586 L 327.38867 161.50586 L 332.7207 157.50586 L 332.7207 142.83789 L 311.38672 149.50586 L 311.38672 144.17188 L 332.7207 130.83789 L 332.7207 116.16992 C 332.7207 113.95651 334.50724 112.16992 336.7207 112.16992 z "
       transform="scale(0.26458333)"
       id="path820" />
    <path
       style="fill:#26a69a;fill-opacity:1;stroke-width:5.7621479"
       d="M 764.60156 69.785156 C 742.30205 69.785156 724.26562 87.821583 724.26562 110.12109 C 724.26562 140.37237 764.60156 185.0293 764.60156 185.0293 C 764.60156 185.0293 804.93555 140.37237 804.93555 110.12109 C 804.93555 87.821583 786.90108 69.785156 764.60156 69.785156 z M 737.10156 90.945312 L 742.10156 90.945312 L 742.10156 113.44336 L 762.10156 113.44336 L 762.10156 95.945312 L 782.10156 95.945312 C 787.6264 95.945313 792.09961 100.41853 792.09961 105.94336 L 792.09961 128.44336 L 787.10156 128.44336 L 787.10156 120.94336 L 742.10156 120.94336 L 742.10156 128.44336 L 737.10156 128.44336 L 737.10156 90.945312 z M 752.10156 95.945312 C 756.25141 95.945312 759.60156 99.293487 759.60156 103.44336 C 759.60156 107.59323 756.25141 110.94336 752.10156 110.94336 C 747.95168 110.94336 744.60156 107.59323 744.60156 103.44336 C 744.60156 99.293487 747.95168 95.945312 752.10156 95.945312 z "
       transform="scale(0.26458333)"
       id="path820-0" />
    <path
       style="fill:#26a69a;fill-opacity:1;stroke-width:5.7621479"
       d="M 1241.0898 101.22266 C 1218.7903 101.22266 1200.7539 119.25908 1200.7539 141.55859 C 1200.7539 171.80987 1241.0898 216.4668 1241.0898 216.4668 C 1241.0898 216.4668 1281.4238 171.80987 1281.4238 141.55859 C 1281.4238 119.25908 1263.3893 101.22266 1241.0898 101.22266 z M 1241.0879 113.22266 L 1249.3945 121.52734 L 1249.3945 138.13867 L 1266.0059 138.13867 L 1266.0059 165.82422 L 1216.1719 165.82422 L 1216.1719 127.06445 L 1232.7832 127.06445 L 1232.7832 121.52734 L 1241.0879 113.22266 z M 1238.3203 121.52734 L 1238.3203 127.06445 L 1243.8574 127.06445 L 1243.8574 121.52734 L 1238.3203 121.52734 z M 1221.709 132.60156 L 1221.709 138.13867 L 1227.2461 138.13867 L 1227.2461 132.60156 L 1221.709 132.60156 z M 1238.3203 132.60156 L 1238.3203 138.13867 L 1243.8574 138.13867 L 1243.8574 132.60156 L 1238.3203 132.60156 z M 1221.709 143.67578 L 1221.709 149.21289 L 1227.2461 149.21289 L 1227.2461 143.67578 L 1221.709 143.67578 z M 1238.3203 143.67578 L 1238.3203 149.21289 L 1243.8574 149.21289 L 1243.8574 143.67578 L 1238.3203 143.67578 z M 1254.9316 143.67578 L 1254.9316 149.21289 L 1260.4688 149.21289 L 1260.4688 143.67578 L 1254.9316 143.67578 z M 1221.709 154.75 L 1221.709 160.28711 L 1227.2461 160.28711 L 1227.2461 154.75 L 1221.709 154.75 z M 1238.3203 154.75 L 1238.3203 160.28711 L 1243.8574 160.28711 L 1243.8574 154.75 L 1238.3203 154.75 z M 1254.9316 154.75 L 1254.9316 160.28711 L 1260.4688 160.28711 L 1260.4688 154.75 L 1254.9316 154.75 z "
       transform="scale(0.26458333)"
       id="path820-1" />
    <path
       style="fill:#26a69a;fill-opacity:1;stroke-width:5.7621479"
       d="M 1721.2676 66.792969 C 1698.9681 66.792969 1680.9316 84.829407 1680.9316 107.12891 C 1680.9316 137.38021 1721.2676 182.03711 1721.2676 182.03711 C 1721.2676 182.03711 1761.6016 137.38021 1761.6016 107.12891 C 1761.6016 84.829407 1743.5671 66.792969 1721.2676 66.792969 z M 1721.2676 76.792969 L 1729.8008 96.929688 L 1751.6387 98.78125 L 1735.0566 113.14648 L 1740.0371 134.49805 L 1721.2676 123.16992 L 1702.498 134.49805 L 1707.4785 113.14648 L 1690.8965 98.78125 L 1712.7324 96.929688 L 1721.2676 76.792969 z "
       transform="scale(0.26458333)"
       id="path820-9" />
  </g>
</svg>
