<?xml version="1.0" encoding="UTF-8" standalone="no"?>
<!-- Created with Inkscape (http://www.inkscape.org/) -->

<svg
   xmlns:dc="http://purl.org/dc/elements/1.1/"
   xmlns:cc="http://creativecommons.org/ns#"
   xmlns:rdf="http://www.w3.org/1999/02/22-rdf-syntax-ns#"
   xmlns:svg="http://www.w3.org/2000/svg"
   xmlns="http://www.w3.org/2000/svg"
   xmlns:sodipodi="http://sodipodi.sourceforge.net/DTD/sodipodi-0.dtd"
   xmlns:inkscape="http://www.inkscape.org/namespaces/inkscape"
   width="92.378212mm"
   height="27.655157mm"
   viewBox="0 0 92.378212 27.655157"
   version="1.1"
   id="svg8"
   inkscape:version="0.92.4 (5da689c313, 2019-01-14)"
   sodipodi:docname="tripplanner-logo.svg">
  <defs
     id="defs2" />
  <sodipodi:namedview
     id="base"
     pagecolor="#ffffff"
     bordercolor="#666666"
     borderopacity="1.0"
     inkscape:pageopacity="0.0"
     inkscape:pageshadow="2"
     inkscape:zoom="1.4"
     inkscape:cx="20.149544"
     inkscape:cy="17.919163"
     inkscape:document-units="mm"
     inkscape:current-layer="svg8"
     showgrid="false"
     showguides="true"
     inkscape:guide-bbox="true"
     fit-margin-top="0"
     fit-margin-left="0"
     fit-margin-right="0"
     fit-margin-bottom="0"
     inkscape:window-width="1920"
     inkscape:window-height="1017"
     inkscape:window-x="1912"
     inkscape:window-y="-8"
     inkscape:window-maximized="1">
    <sodipodi:guide
       position="-29.595121,7.5909704"
       orientation="0,1"
       id="guide844"
       inkscape:locked="false" />
  </sodipodi:namedview>
  <metadata
     id="metadata5">
    <rdf:RDF>
      <cc:Work
         rdf:about="">
        <dc:format>image/svg+xml</dc:format>
        <dc:type
           rdf:resource="http://purl.org/dc/dcmitype/StillImage" />
        <dc:title></dc:title>
      </cc:Work>
    </rdf:RDF>
  </metadata>
  <path
     style="fill:#ff5722;fill-opacity:1;stroke-width:1.38276291"
     d="M 9.67951,0 C 4.32822,0 0,4.328218 0,9.679518 c 0,7.2595 9.67951,17.97564 9.67951,17.97564 0,0 9.679,-10.71614 9.679,-17.97564 C 19.35851,4.328218 15.03081,0 9.67951,0 Z"
     id="path842"
     inkscape:connector-curvature="0" />
  <path
     style="fill:#ffffff;fill-opacity:1;stroke-width:1.38276291"
     d="m 9.67951,6.222358 c 1.90822,0 3.45664,1.54894 3.45664,3.45716 0,1.90821 -1.54842,3.45663 -3.45664,3.45663 -1.90821,0 -3.45715,-1.54842 -3.45715,-3.45663 0,-1.90822 1.54894,-3.45716 3.45715,-3.45716 z"
     id="path819"
     inkscape:connector-curvature="0" />
  <path
     inkscape:connector-curvature="0"
     id="path846"
     style="font-style:normal;font-variant:normal;font-weight:500;font-stretch:normal;font-size:17.94289017px;line-height:1.25;font-family:Roboto;-inkscape-font-specification:'Roboto Medium';letter-spacing:-1.48166668px;word-spacing:0px;fill:#ffffff;fill-opacity:1;stroke:none;stroke-width:0.44857225"
     d="m 24.944909,12.923388 h -3.977574 v 10.96899 H 18.76828 v -10.96899 h -3.94253 v -1.78728 h 10.119159 z" />
  <path
     inkscape:connector-curvature="0"
     id="path848"
     style="font-style:normal;font-variant:normal;font-weight:500;font-stretch:normal;font-size:17.94289017px;line-height:1.25;font-family:Roboto;-inkscape-font-specification:'Roboto Medium';letter-spacing:-1.48166668px;word-spacing:0px;fill:#ffffff;fill-opacity:1;stroke:none;stroke-width:0.44857225"
     d="m 29.341993,16.357768 q -0.420537,-0.0701 -0.867357,-0.0701 -1.463114,0 -1.971263,1.12143 v 6.48327 h -2.128967 v -9.47959 h 2.032593 l 0.05257,1.0601 q 0.770983,-1.23533 2.137727,-1.23533 0.455581,0 0.753462,0.12266 z" />
  <path
     inkscape:connector-curvature="0"
     id="path850"
     style="font-style:normal;font-variant:normal;font-weight:500;font-stretch:normal;font-size:17.94289017px;line-height:1.25;font-family:Roboto;-inkscape-font-specification:'Roboto Medium';letter-spacing:-1.48166668px;word-spacing:0px;fill:#ffffff;fill-opacity:1;stroke:none;stroke-width:0.44857225"
     d="m 31.469931,23.892378 h -2.128965 v -9.47959 h 2.128965 z m -2.260383,-11.94148 q 0,-0.49063 0.306641,-0.81479 0.315402,-0.32417 0.893641,-0.32417 0.578236,0 0.893641,0.32417 0.315401,0.32416 0.315401,0.81479 0,0.48186 -0.315401,0.80603 -0.315405,0.3154 -0.893641,0.3154 -0.578239,0 -0.893641,-0.3154 -0.306641,-0.32417 -0.306641,-0.80603 z" />
  <path
     inkscape:connector-curvature="0"
     id="path852"
     style="font-style:normal;font-variant:normal;font-weight:500;font-stretch:normal;font-size:17.94289017px;line-height:1.25;font-family:Roboto;-inkscape-font-specification:'Roboto Medium';letter-spacing:-1.48166668px;word-spacing:0px;fill:#ffffff;fill-opacity:1;stroke:none;stroke-width:0.44857225"
     d="m 40.615574,19.248958 q 0,2.19905 -0.998776,3.51323 -0.998773,1.30541 -2.68092,1.30541 -1.559491,0 -2.496936,-1.02505 v 4.49448 h -2.128965 v -13.12424 h 1.962502 l 0.08761,0.96373 q 0.937445,-1.13896 2.549501,-1.13896 1.734714,0 2.715966,1.29666 0.990013,1.28789 0.990013,3.58332 z m -2.120207,-0.18399 q 0,-1.41931 -0.569476,-2.25162 -0.560716,-0.83231 -1.612056,-0.83231 -1.305415,0 -1.874893,1.07762 v 4.20537 q 0.578239,1.10391 1.892414,1.10391 1.016299,0 1.585775,-0.81479 0.578236,-0.82355 0.578236,-2.48818 z" />
  <path
     inkscape:connector-curvature="0"
     id="path854"
     style="font-style:normal;font-variant:normal;font-weight:500;font-stretch:normal;font-size:17.94289017px;line-height:1.25;font-family:Roboto;-inkscape-font-specification:'Roboto Medium';letter-spacing:-1.48166668px;word-spacing:0px;fill:#ffffff;fill-opacity:1;stroke:none;stroke-width:0.44857225"
     d="m 43.348032,19.152578 v 4.7398 h -2.216579 v -12.75627 h 4.879975 q 2.137727,0 3.390575,1.11267 1.26161,1.11267 1.26161,2.94375 0,1.87489 -1.235327,2.91747 -1.226563,1.04258 -3.443142,1.04258 z m 0,-1.77851 h 2.663396 q 1.182759,0 1.804802,-0.55196 0.622044,-0.56071 0.622044,-1.61205 0,-1.03382 -0.630804,-1.64711 -0.630804,-0.62204 -1.734714,-0.63956 h -2.724724 z" />
  <path
     inkscape:connector-curvature="0"
     id="path856"
     style="font-style:normal;font-variant:normal;font-weight:500;font-stretch:normal;font-size:17.94289017px;line-height:1.25;font-family:Roboto;-inkscape-font-specification:'Roboto Medium';letter-spacing:-1.48166668px;word-spacing:0px;fill:#ffffff;fill-opacity:1;stroke:none;stroke-width:0.44857225"
     d="m 53.168289,23.892378 h -2.128971 v -13.45717 h 2.128971 z" />
  <path
     inkscape:connector-curvature="0"
     id="path858"
     style="font-style:normal;font-variant:normal;font-weight:500;font-stretch:normal;font-size:17.94289017px;line-height:1.25;font-family:Roboto;-inkscape-font-specification:'Roboto Medium';letter-spacing:-1.48166668px;word-spacing:0px;fill:#ffffff;fill-opacity:1;stroke:none;stroke-width:0.44857225"
     d="m 59.676809,23.892378 q -0.14018,-0.2716 -0.24531,-0.88488 -1.0163,1.0601 -2.48818,1.0601 -1.42807,0 -2.33047,-0.81478 -0.9024,-0.81479 -0.9024,-2.01508 0,-1.51568 1.12143,-2.32171 1.13019,-0.81479 3.22411,-0.81479 h 1.30542 v -0.62204 q 0,-0.73594 -0.41178,-1.174 -0.41177,-0.44682 -1.25285,-0.44682 -0.72718,0 -1.19152,0.36797 -0.46434,0.35921 -0.46434,0.91993 h -2.12896 q 0,-0.77975 0.5169,-1.45436 0.51692,-0.68337 1.40179,-1.06886 0.89364,-0.3855 1.98879,-0.3855 1.66462,0 2.65464,0.84108 0.99001,0.83231 1.01629,2.34799 v 4.27546 q 0,1.27913 0.35921,2.04135 v 0.14894 z m -2.33924,-1.5332 q 0.63081,0 1.18276,-0.30665 0.56072,-0.30664 0.84108,-0.82355 v -1.78728 h -1.14772 q -1.18275,0 -1.77852,0.41178 -0.59576,0.41177 -0.59576,1.16524 0,0.61328 0.40302,0.98125 0.41177,0.35921 1.09514,0.35921 z" />
  <path
     inkscape:connector-curvature="0"
     id="path860"
     style="font-style:normal;font-variant:normal;font-weight:500;font-stretch:normal;font-size:17.94289017px;line-height:1.25;font-family:Roboto;-inkscape-font-specification:'Roboto Medium';letter-spacing:-1.48166668px;word-spacing:0px;fill:#ffffff;fill-opacity:1;stroke:none;stroke-width:0.44857225"
     d="m 64.214069,14.412788 0.0613,1.09515 q 1.05134,-1.27038 2.75977,-1.27038 2.96128,0 3.01385,3.39058 v 6.26424 h -2.12897 v -6.14158 q 0,-0.9024 -0.39425,-1.3317 -0.3855,-0.43806 -1.27037,-0.43806 -1.2879,0 -1.9187,1.16524 v 6.7461 h -2.12897 v -9.47959 z" />
  <path
     inkscape:connector-curvature="0"
     id="path862"
     style="font-style:normal;font-variant:normal;font-weight:500;font-stretch:normal;font-size:17.94289017px;line-height:1.25;font-family:Roboto;-inkscape-font-specification:'Roboto Medium';letter-spacing:-1.48166668px;word-spacing:0px;fill:#ffffff;fill-opacity:1;stroke:none;stroke-width:0.44857225"
     d="m 72.720139,14.412788 0.0613,1.09515 q 1.05134,-1.27038 2.75977,-1.27038 2.96128,0 3.01385,3.39058 v 6.26424 h -2.12897 v -6.14158 q 0,-0.9024 -0.39425,-1.3317 -0.38549,-0.43806 -1.27037,-0.43806 -1.28789,0 -1.9187,1.16524 v 6.7461 h -2.12896 v -9.47959 z" />
  <path
     inkscape:connector-curvature="0"
     id="path864"
     style="font-style:normal;font-variant:normal;font-weight:500;font-stretch:normal;font-size:17.94289017px;line-height:1.25;font-family:Roboto;-inkscape-font-specification:'Roboto Medium';letter-spacing:-1.48166668px;word-spacing:0px;fill:#ffffff;fill-opacity:1;stroke:none;stroke-width:0.44857225"
     d="m 83.425269,24.067598 q -2.02383,0 -3.28544,-1.27037 -1.25285,-1.27913 -1.25285,-3.39933 v -0.26284 q 0,-1.41931 0.5432,-2.53198 0.55195,-1.12143 1.54196,-1.74347 0.99002,-0.62205 2.20782,-0.62205 1.93622,0 2.98756,1.23533 1.0601,1.23533 1.0601,3.49571 v 0.8586 h -6.19415 q 0.0964,1.17399 0.77975,1.85736 0.69213,0.68338 1.73471,0.68338 1.46312,0 2.38304,-1.18276 l 1.14771,1.09514 q -0.56947,0.84984 -1.52444,1.32294 -0.94621,0.46434 -2.12897,0.46434 z m -0.25407,-8.12161 q -0.87612,0 -1.41931,0.61329 -0.53443,0.61328 -0.68337,1.70843 h 4.05642 v -0.15771 q -0.0701,-1.06886 -0.56948,-1.61205 -0.49938,-0.55196 -1.38426,-0.55196 z" />
  <path
     inkscape:connector-curvature="0"
     id="path866"
     style="font-style:normal;font-variant:normal;font-weight:500;font-stretch:normal;font-size:17.94289017px;line-height:1.25;font-family:Roboto;-inkscape-font-specification:'Roboto Medium';letter-spacing:-1.48166668px;word-spacing:0px;fill:#ffffff;fill-opacity:1;stroke:none;stroke-width:0.44857225"
     d="m 92.369409,16.357768 q -0.42054,-0.0701 -0.86736,-0.0701 -1.46311,0 -1.97126,1.12143 v 6.48327 h -2.12897 v -9.47959 h 2.0326 l 0.0526,1.0601 q 0.77099,-1.23533 2.13773,-1.23533 0.45558,0 0.75346,0.12266 z" />
</svg>
